<svg xmlns="http://www.w3.org/2000/svg" width="200" height="200" viewBox="0 0 200 200"><path fill="#24bbf2" d="M83.2 104.4H64.7v17h17.6c2.6-.1 7.6-.9 7.6-8.3s-6.7-8.7-6.7-8.7zm4.5-17.3c0-6.6-4.5-6.6-4.5-6.6H64.7v14.1H82c3 0 5.7-.9 5.7-7.5z"/><path fill="#24bbf2" d="M100 15.9a84.1 84.1 0 1 0 84.1 84.1A84 84 0 0 0 100 15.9zM116.5 73h26.2v7.8h-26.2zm-13.2 40.9c0 19.3-20.1 18.7-20.1 18.7h-33V69.2h33c10 0 17.9 5.6 17.9 16.9s-9.6 12.1-9.6 12.1c12.7 0 11.8 15.7 11.8 15.7zm48.9-1h-32.8c0 11.7 11.1 11 11.1 11 10.6 0 10.2-6.8 10.2-6.8h11.2c0 18.1-21.7 16.8-21.7 16.8-26 0-24.4-24.2-24.4-24.2s.1-24.3 24.4-24.3 22 27.5 22 27.5z"/><path fill="#24bbf2" d="M130.4 94.6c-9.8 0-11.1 9.8-11.1 9.8h20.8s.1-9.8-9.7-9.8z"/></svg>