<svg xmlns="http://www.w3.org/2000/svg" width="200" height="200" viewBox="0 0 200 200"><path fill="#24bbf2" d="M145.7 73.4a6.8 6.8 0 0 0-6.8-6.8H61.1a6.8 6.8 0 0 0-6.8 6.8v53.2a6.7 6.7 0 0 0 6.8 6.8h77.8a6.8 6.8 0 0 0 6.9-6.8h-.1zm-6.8 54a3 3 0 0 1-2.1.9 2.6 2.6 0 0 1-2-.8l-25.6-24.3-7.2 6.4a2.7 2.7 0 0 1-1.9.8 3.2 3.2 0 0 1-1.9-.7l-7-6.3-25.8 24.1a3.2 3.2 0 0 1-2 .8 3 3 0 0 1-2.1-.9 2.9 2.9 0 0 1 .2-4.1l25.3-23.8-25.4-22.8a2.8 2.8 0 0 1-.3-4 3 3 0 0 1 4.1-.3l27.6 24.7.4.4h.1l6.8 6 34.7-31.1a2.9 2.9 0 0 1 4.1.2 2.8 2.8 0 0 1-.3 4l-25.1 22.7 25.3 24.1a2.9 2.9 0 0 1 .1 4z"/><path fill="#24bbf2" d="M100 16a84 84 0 1 0 84 84 84 84 0 0 0-84-84zm51.5 110.6a12.6 12.6 0 0 1-12.6 12.6H61.1a12.6 12.6 0 0 1-12.6-12.6V73.4a12.6 12.6 0 0 1 12.6-12.6h77.8a12.6 12.6 0 0 1 12.6 12.6z"/></svg>