<svg xmlns="http://www.w3.org/2000/svg" width="200" height="200" viewBox="0 0 200 200"><path fill="#24bbf2" d="M116.1 100A16.1 16.1 0 1 1 100 83.9a16.1 16.1 0 0 1 16.1 16.1z"/><path fill="#24bbf2" d="M137.6 71.6a15.7 15.7 0 0 0-9.2-9.2 27.2 27.2 0 0 0-8.9-1.7c-5.1-.2-6.6-.2-19.5-.2s-14.4 0-19.5.2a27.2 27.2 0 0 0-8.9 1.7 15.7 15.7 0 0 0-9.2 9.2 27.2 27.2 0 0 0-1.7 8.9c-.2 5.1-.2 6.6-.2 19.5s0 14.4.2 19.5a27.2 27.2 0 0 0 1.7 8.9 15.7 15.7 0 0 0 9.2 9.2 27.2 27.2 0 0 0 8.9 1.7c5.1.2 6.6.2 19.5.2s14.4 0 19.5-.2a27.2 27.2 0 0 0 8.9-1.7 15.5 15.5 0 0 0 9.2-9.2 27.2 27.2 0 0 0 1.7-8.9c.2-5.1.2-6.6.2-19.5s0-14.4-.2-19.5a27.2 27.2 0 0 0-1.7-8.9zM100 124.8a24.8 24.8 0 1 1 24.8-24.8 24.8 24.8 0 0 1-24.8 24.8zM125.7 80a5.8 5.8 0 1 1 5.8-5.7 5.8 5.8 0 0 1-5.8 5.7z"/><path fill="#24bbf2" d="M100 16a84 84 0 1 0 84 84 84 84 0 0 0-84-84zm47.9 103.9a34.8 34.8 0 0 1-2.2 11.7 24.5 24.5 0 0 1-14.1 14.1 34.8 34.8 0 0 1-11.7 2.2c-5.2.3-6.8.3-19.9.3s-14.7 0-19.9-.3a34.8 34.8 0 0 1-11.7-2.2 25.3 25.3 0 0 1-14.1-14.1 34.8 34.8 0 0 1-2.2-11.7c-.3-5.2-.3-6.8-.3-19.9s0-14.7.3-19.9a34.8 34.8 0 0 1 2.2-11.7 25.3 25.3 0 0 1 14.1-14.1 34.8 34.8 0 0 1 11.7-2.2c5.2-.3 6.8-.3 19.9-.3s14.7 0 19.9.3a34.8 34.8 0 0 1 11.7 2.2 25.3 25.3 0 0 1 14.1 14.1 34.8 34.8 0 0 1 2.2 11.7c.3 5.2.3 6.8.3 19.9s0 14.7-.3 19.9z"/></svg>