<svg id="Layer_1" data-name="Layer 1" xmlns="http://www.w3.org/2000/svg" width="1000" height="1000" viewBox="0 0 1000 1000"><title>m-with-shadow</title><path d="M853,100.4a129.5,129.5,0,0,0-88.8-34.6c-49.8,0-92.9,27.3-113.2,66.8h0c-.7,1-172.6,293.1-172.8,293.3L424.9,685.6c16.1,8.2,34.5,12.2,53.3,12.2,35.2,0,72.3-15.3,91.1-47.2l69.3-117.7V834.3c0,65.2,56.2,118.1,125.6,118.1s125.6-52.9,125.6-118.1V183.9C889.8,151.3,875.7,121.8,853,100.4Z" fill="#dadada"/><path d="M478.2,426,307.3,135.7c-.7-1.1-16.4-26-26.3-35.3a129.5,129.5,0,0,0-88.8-34.6c-69.3,0-125.5,52.9-125.5,118.1V834.3c0,65.2,56.2,118.1,125.5,118.1s125.6-52.9,125.6-118.1V532.9l69.3,117.7a90.9,90.9,0,0,0,37.8,35L478.2,426Z" fill="#24bbf2"/><path d="M530.4,675.6A126,126,0,0,1,474,662.7a9.3,9.3,0,0,1,8.4-16.5c14.1,7.1,30.7,10.9,48,10.9a109.3,109.3,0,0,0,26.8-3.3,9.3,9.3,0,0,1,4.5,18A131.5,131.5,0,0,1,530.4,675.6Z" fill="#7b7b7b"/><path d="M687.4,597.5a9.3,9.3,0,0,1-9.2-9.3V538.9l-25,42.5a9.3,9.3,0,1,1-16-9.4l42.3-71.8a9.2,9.2,0,0,1,17.2,4.7v83.3A9.3,9.3,0,0,1,687.4,597.5Z" fill="#7b7b7b"/><path d="M810.4,924.8h-6.8a9.3,9.3,0,1,1,.9-18.5h5.9a118.9,118.9,0,0,0,71.8-23.9c19.8-15.1,33.7-36.2,39.2-59.3a9.2,9.2,0,1,1,18,4.2c-6.5,27.4-22.8,52.1-46,69.8A137.2,137.2,0,0,1,810.4,924.8ZM708.3,873.7a9.2,9.2,0,0,1-7.5-3.9,119.4,119.4,0,0,1-22.6-69.9V700.5a9.3,9.3,0,1,1,18.5,0v99.4A101.1,101.1,0,0,0,715.8,859a9.2,9.2,0,0,1-2.1,12.9A9,9,0,0,1,708.3,873.7Zm225-151.3a9.2,9.2,0,0,1-9.2-9.2V544.8a9.3,9.3,0,0,1,18.5,0V713.2A9.2,9.2,0,0,1,933.3,722.4Zm0-280.6a9.2,9.2,0,0,1-9.2-9.2V264.2a9.3,9.3,0,1,1,18.5,0V432.6A9.2,9.2,0,0,1,933.3,441.8ZM629.7,241a10.1,10.1,0,0,1-4.7-1.3,9.3,9.3,0,0,1-3.3-12.7l69.7-118.2a121,121,0,0,1,19-27.2A9.2,9.2,0,1,1,724,94.1,104.9,104.9,0,0,0,708,117l-.6,1L637.7,236.4A9.4,9.4,0,0,1,629.7,241Zm77.7-123v0Zm225.4,43.2a9.1,9.1,0,0,1-9.2-8.3c-2.5-24.3-14.1-47.3-32.6-64.7a117.2,117.2,0,0,0-73.4-31.1,9.3,9.3,0,1,1,1.1-18.5c32,1.9,62.2,14.7,85,36.2A122.5,122.5,0,0,1,942,151a9.4,9.4,0,0,1-8.3,10.2Z" fill="#7b7b7b"/><path d="M530.4,409.5a8.4,8.4,0,0,1-4.6-1.3,9.3,9.3,0,0,1-3.3-12.7l42.2-71.7a9.2,9.2,0,0,1,12.7-3.2,9.1,9.1,0,0,1,3.2,12.6l-42.2,71.7A9.3,9.3,0,0,1,530.4,409.5Z" fill="#7b7b7b"/><path d="M478.2,426l-33.9-57.6L380.9,640l6.2,10.6a90.9,90.9,0,0,0,37.8,35L478.2,426Z" fill="#087ba5"/></svg>